<?xml version="1.0" encoding="UTF-8" standalone="no"?>
<!DOCTYPE svg PUBLIC "-//W3C//DTD SVG 1.1//EN" "http://www.w3.org/Graphics/SVG/1.1/DTD/svg11.dtd">
<svg width="100%" height="100%" viewBox="0 0 24 24" version="1.1" xmlns="http://www.w3.org/2000/svg" xmlns:xlink="http://www.w3.org/1999/xlink" xml:space="preserve" xmlns:serif="http://www.serif.com/" style="fill-rule:evenodd;clip-rule:evenodd;stroke-linejoin:round;stroke-miterlimit:2;">
    <path id="flower" d="M2.25,13.976C2.25,13.976 2.25,13.975 2.25,13.974C2.249,13.941 2.25,13.907 2.252,13.874C2.286,13.362 2.704,12.958 3.216,12.941C3.25,12.94 3.283,12.941 3.317,12.943C3.317,12.943 3.318,12.943 3.319,12.943C6.379,13.149 8.644,14.086 10.261,15.654C11.102,16.47 11.772,17.462 12.28,18.63C12.784,17.463 13.449,16.471 14.286,15.656C15.897,14.086 18.156,13.149 21.218,12.943C21.246,12.941 21.273,12.941 21.301,12.941C21.316,12.941 21.332,12.941 21.347,12.941C21.899,12.96 22.332,13.423 22.313,13.974C22.216,16.89 21.249,18.975 19.879,20.439C17.833,22.623 14.841,23.423 12.282,23.423C9.723,23.423 6.73,22.623 4.685,20.439C3.314,18.976 2.348,16.891 2.25,13.976ZM11.067,21.354C10.661,19.577 9.958,18.145 8.869,17.09C7.764,16.018 6.271,15.349 4.347,15.062C4.59,16.798 5.243,18.109 6.144,19.072C7.477,20.494 9.321,21.154 11.067,21.354ZM20.217,15.058C18.282,15.343 16.787,16.012 15.682,17.088C14.598,18.144 13.9,19.576 13.495,21.354C15.242,21.154 17.087,20.494 18.419,19.072C19.321,18.108 19.974,16.796 20.217,15.058ZM12.236,2.562C12.826,2.042 13.513,1.503 14.197,1.148C14.243,1.125 14.291,1.104 14.34,1.088C15.491,0.703 16.757,1.159 17.398,2.19C17.426,2.235 17.451,2.283 17.471,2.331C17.915,3.39 18.203,5.035 18.433,7.386C18.789,10.444 16.794,13.284 13.795,13.985L13.783,13.987C13.647,14.018 13.507,14.043 13.366,14.083C13.327,14.094 13.287,14.103 13.248,14.109C10.939,14.476 8.638,13.489 7.308,11.595C7.283,11.565 7.26,11.534 7.238,11.5C7.184,11.416 7.131,11.332 7.08,11.246L7.075,11.237C6.844,10.847 6.645,10.42 6.612,10.321L6.603,10.277C6.183,9.231 6.015,8.096 6.12,6.964C6.242,5.584 6.498,4.114 7.148,2.629L7.153,2.617C7.424,2.02 7.921,1.556 8.535,1.328C9.148,1.1 9.827,1.126 10.421,1.4C11.093,1.707 11.7,2.095 12.236,2.562ZM8.474,9.57C8.567,9.731 8.714,10.001 8.926,10.418C9.806,11.693 11.337,12.367 12.875,12.144C13.033,12.101 13.191,12.07 13.344,12.036C15.353,11.564 16.688,9.659 16.445,7.609L16.443,7.589C16.246,5.572 16.033,4.134 15.66,3.19C15.513,3.003 15.271,2.916 15.033,2.969C14.509,3.255 13.993,3.672 13.54,4.075C14.345,5.323 14.824,6.891 14.919,8.757C14.947,9.308 14.522,9.779 13.971,9.807C13.42,9.835 12.95,9.41 12.922,8.859C12.781,6.094 11.616,4.143 9.589,3.218L9.584,3.216C9.473,3.165 9.347,3.16 9.232,3.203C9.119,3.245 9.027,3.33 8.977,3.439C8.423,4.706 8.217,5.963 8.112,7.141L8.112,7.145C8.034,7.976 8.161,8.807 8.474,9.57Z" style="fill:rgb(236,171,193);"/>
</svg>
