<?xml version="1.0" encoding="UTF-8" standalone="no"?>
<!DOCTYPE svg PUBLIC "-//W3C//DTD SVG 1.1//EN" "http://www.w3.org/Graphics/SVG/1.1/DTD/svg11.dtd">
<svg width="100%" height="100%" viewBox="0 0 24 24" version="1.1" xmlns="http://www.w3.org/2000/svg" xmlns:xlink="http://www.w3.org/1999/xlink" xml:space="preserve" xmlns:serif="http://www.serif.com/" style="fill-rule:evenodd;clip-rule:evenodd;stroke-linejoin:round;stroke-miterlimit:2;">
    <g transform="matrix(1.177162,0.31542,-0.343494,1.281938,2.331149,-8.683588)">
        <path d="M7.791,9.74C6.814,9.544 6.082,8.745 6.082,7.79C6.082,6.688 7.056,5.794 8.255,5.794L15.688,5.794C16.888,5.794 17.861,6.688 17.861,7.79C17.861,8.745 17.129,9.544 16.152,9.74L16.152,13.799C16.877,14.123 17.376,14.806 17.376,15.595C17.376,16.696 16.402,17.59 15.202,17.59L12.792,17.59L12.792,19.83C12.792,20.246 12.425,20.584 11.972,20.584C11.519,20.584 11.151,20.246 11.151,19.83L11.151,17.59L8.741,17.59C7.541,17.59 6.567,16.696 6.567,15.595C6.567,14.806 7.067,14.123 7.791,13.799L7.791,9.74ZM15.688,8.343L15.688,8.279C15.982,8.279 16.22,8.06 16.22,7.79C16.22,7.52 15.982,7.301 15.688,7.301L8.255,7.301C7.962,7.301 7.723,7.52 7.723,7.79C7.723,8.06 7.962,8.279 8.255,8.279L8.478,8.278C8.521,8.272 8.566,8.268 8.611,8.268C8.655,8.268 8.698,8.271 8.74,8.277L12.057,8.268C12.51,8.267 12.878,8.604 12.88,9.019C12.881,9.435 12.515,9.774 12.062,9.775L9.432,9.783L9.432,13.599L14.511,13.599L14.511,9.032C14.511,9.029 14.511,9.025 14.511,9.022C14.511,8.606 14.879,8.268 15.332,8.268C15.379,8.268 15.425,8.272 15.469,8.279L15.686,8.279L15.686,8.342C15.687,8.342 15.687,8.343 15.688,8.343ZM8.741,16.083L15.202,16.083C15.496,16.083 15.735,15.864 15.735,15.595C15.735,15.325 15.496,15.106 15.202,15.106L8.741,15.106C8.447,15.106 8.209,15.325 8.209,15.595C8.209,15.864 8.447,16.083 8.741,16.083Z" style="fill:rgb(236,171,193);"/>
    </g>
</svg>
