<?xml version="1.0" encoding="UTF-8" standalone="no"?>
<!DOCTYPE svg PUBLIC "-//W3C//DTD SVG 1.1//EN" "http://www.w3.org/Graphics/SVG/1.1/DTD/svg11.dtd">
<svg width="100%" height="100%" viewBox="0 0 10 10" version="1.1" xmlns="http://www.w3.org/2000/svg" xmlns:xlink="http://www.w3.org/1999/xlink" xml:space="preserve" xmlns:serif="http://www.serif.com/" style="fill-rule:evenodd;clip-rule:evenodd;stroke-linejoin:round;stroke-miterlimit:2;">
    <g transform="matrix(1,0,0,1,-7,-7)">
        <g transform="matrix(-0.790922,-9.686e-17,9.686e-17,-0.790922,22.4457,21.491)">
            <path d="M13.293,7.293C12.902,7.684 12.902,8.316 13.293,8.707L15.586,11L8,11C7.448,11 7,11.448 7,12C7,12.552 7.448,13 8,13L15.586,13L13.293,15.293C12.902,15.684 12.902,16.316 13.293,16.707C13.488,16.902 13.744,17 14,17C14.256,17 14.512,16.902 14.707,16.707L19.414,12L14.707,7.293C14.316,6.902 13.684,6.902 13.293,7.293Z" style="fill-rule:nonzero;"/>
        </g>
    </g>
</svg>
