<?xml version="1.0" encoding="UTF-8" standalone="no"?>
<!DOCTYPE svg PUBLIC "-//W3C//DTD SVG 1.1//EN" "http://www.w3.org/Graphics/SVG/1.1/DTD/svg11.dtd">
<svg width="100%" height="100%" viewBox="0 0 24 24" version="1.1" xmlns="http://www.w3.org/2000/svg" xmlns:xlink="http://www.w3.org/1999/xlink" xml:space="preserve" xmlns:serif="http://www.serif.com/" style="fill-rule:evenodd;clip-rule:evenodd;stroke-linejoin:round;stroke-miterlimit:2;">
    <g transform="matrix(0.895327,0,0,0.895327,0.590659,1.13608)">
        <path d="M17.004,12.135L17.004,15.02C17.048,15.025 17.098,15.029 17.136,15.029L17.141,15.029C17.608,15.031 18.037,14.775 18.258,14.361C18.563,13.746 18.692,13.163 18.692,12.135C18.692,8.846 15.755,6.303 12.747,6.303C9.498,6.303 6.869,8.885 6.869,12.135C6.869,15.643 9.691,17.98 12.747,17.98C13.364,17.98 13.864,18.48 13.864,19.097C13.864,19.713 13.364,20.214 12.747,20.214C8.526,20.214 4.635,16.979 4.635,12.135C4.635,7.646 8.258,4.07 12.747,4.07C16.896,4.07 20.926,7.599 20.926,12.135C20.926,13.637 20.699,14.476 20.249,15.375L20.238,15.396C19.632,16.547 18.436,17.267 17.135,17.263C16.444,17.263 15.873,17.077 15.461,16.712L15.216,16.452L15.021,16.151C14.967,16.05 14.919,15.94 14.878,15.82C14.251,16.184 13.523,16.392 12.747,16.392C10.398,16.392 8.49,14.484 8.49,12.135C8.49,9.785 10.398,7.878 12.747,7.878C15.097,7.878 17.004,9.785 17.004,12.135ZM14.77,12.135C14.77,11.018 13.864,10.112 12.747,10.112C11.631,10.112 10.724,11.018 10.724,12.135C10.724,13.251 11.631,14.158 12.747,14.158C13.864,14.158 14.77,13.251 14.77,12.135Z" style="fill:rgb(236,171,193);"/>
    </g>
    <path d="M23.003,6.499L23.003,17.501C23.003,20.538 20.538,23.003 17.501,23.003L6.499,23.003C3.462,23.003 0.997,20.538 0.997,17.501L0.997,6.499C0.997,3.462 3.462,0.997 6.499,0.997L17.501,0.997C20.538,0.997 23.003,3.462 23.003,6.499ZM21.003,6.499C21.003,4.566 19.434,2.997 17.501,2.997L6.499,2.997C4.566,2.997 2.997,4.566 2.997,6.499L2.997,17.501C2.997,19.434 4.566,21.003 6.499,21.003L17.501,21.003C19.434,21.003 21.003,19.434 21.003,17.501L21.003,6.499Z" style="fill:rgb(236,171,193);"/>
</svg>
