<?xml version="1.0" encoding="UTF-8" standalone="no"?>
<!DOCTYPE svg PUBLIC "-//W3C//DTD SVG 1.1//EN" "http://www.w3.org/Graphics/SVG/1.1/DTD/svg11.dtd">
<svg width="100%" height="100%" viewBox="0 0 30 30" version="1.1" xmlns="http://www.w3.org/2000/svg" xmlns:xlink="http://www.w3.org/1999/xlink" xml:space="preserve" xmlns:serif="http://www.serif.com/" style="fill-rule:evenodd;clip-rule:evenodd;stroke-linejoin:round;stroke-miterlimit:2;">
    <g transform="matrix(1.23915,0,0,1.23481,-3.58724,-3.52214)">
        <g transform="matrix(1,0,0,1,3,3)">
            <path d="M12,2C6.477,2 2,6.477 2,12C2,17.523 6.477,22 12,22C17.523,22 22,17.523 22,12C22,6.477 17.523,2 12,2ZM0,12C0,5.373 5.373,0 12,0C18.627,0 24,5.373 24,12C24,18.627 18.627,24 12,24C5.373,24 0,18.627 0,12Z"/>
        </g>
        <g transform="matrix(1,0,0,1,3,3)">
            <path d="M9.592,22.736C9.495,22.611 9.495,21.499 9.592,19.399C8.556,19.435 7.901,19.363 7.628,19.183C7.219,18.914 6.808,18.083 6.445,17.498C6.081,16.913 5.273,16.82 4.947,16.689C4.621,16.558 4.539,16.025 5.846,16.428C7.152,16.832 7.216,17.93 7.628,18.187C8.04,18.444 9.026,18.332 9.472,18.126C9.919,17.92 9.886,17.154 9.966,16.85C10.067,16.567 9.712,16.504 9.704,16.502C9.268,16.502 6.977,16.004 6.348,13.785C5.719,11.567 6.529,10.117 6.961,9.494C7.25,9.078 7.224,8.193 6.885,6.837C8.117,6.679 9.067,7.067 9.737,8C9.737,8.005 10.614,7.479 12,7.479C13.386,7.479 13.878,7.908 14.257,8C14.637,8.092 14.94,6.367 17.283,6.837C16.794,7.798 16.384,9 16.697,9.494C17.01,9.987 18.237,11.557 17.483,13.785C16.981,15.271 15.993,16.176 14.519,16.502C14.35,16.556 14.266,16.643 14.266,16.763C14.266,16.943 14.494,16.962 14.823,17.806C15.043,18.368 15.059,19.974 14.871,22.623C14.395,22.744 14.025,22.826 13.761,22.867C13.292,22.941 12.784,22.982 12.283,22.998C11.783,23.014 11.61,23.012 10.919,22.948C10.458,22.905 10.015,22.834 9.592,22.736Z"/>
        </g>
    </g>
</svg>
