<?xml version="1.0" encoding="UTF-8" standalone="no"?>
<!DOCTYPE svg PUBLIC "-//W3C//DTD SVG 1.1//EN" "http://www.w3.org/Graphics/SVG/1.1/DTD/svg11.dtd">
<svg width="100%" height="100%" viewBox="0 0 212 176" version="1.1" xmlns="http://www.w3.org/2000/svg" xmlns:xlink="http://www.w3.org/1999/xlink" xml:space="preserve" xmlns:serif="http://www.serif.com/" style="fill-rule:evenodd;clip-rule:evenodd;stroke-linejoin:round;stroke-miterlimit:2;">
    <g transform="matrix(0.970929,0,0,0.970929,3.37043,3.01164)">
        <path d="M209.647,20.455C208.231,19.496 206.356,19.545 204.989,20.578C203.194,21.939 200.272,23.019 197.127,23.851C205.317,14.676 205.493,8.549 205.405,7.138C205.313,5.684 204.436,4.392 203.116,3.771C201.792,3.146 200.241,3.299 199.061,4.154C189.85,10.85 180.675,12.264 175.217,12.406C166.843,4.392 155.963,0 144.389,0C119.606,0 99.444,20.432 99.444,45.545C99.444,47.703 99.594,49.861 99.895,51.996C56.944,51.51 22.065,10.355 21.706,9.926C20.868,8.924 19.593,8.388 18.29,8.504C16.987,8.617 15.821,9.357 15.169,10.49C2.807,31.934 11.079,50.768 18.639,61.551C17.301,60.838 16.217,60.135 15.571,59.658C14.37,58.764 12.766,58.615 11.417,59.277C10.069,59.941 9.208,61.301 9.182,62.802C8.848,83.234 18.684,94.939 27.93,101.41C26.698,101.293 25.446,101.752 24.591,102.682C23.629,103.726 23.292,105.201 23.706,106.558C30.093,127.467 45.778,134.57 55.759,136.98C35.237,152.955 5.04,147.814 4.706,147.756C2.883,147.434 1.081,148.392 0.339,150.084C-0.404,151.773 0.104,153.754 1.573,154.873C23.233,171.404 49.139,175.066 67.854,175.066C82.009,175.064 92.053,172.968 93.014,172.76C187.805,150.297 190.473,63.468 190.257,49.238C208.051,32.689 210.833,26.386 211.262,24.828C211.715,23.174 211.067,21.416 209.647,20.455ZM183.495,44.596C182.604,45.416 182.133,46.598 182.213,47.806C182.465,51.648 187.313,142.193 91.245,164.959C90.809,165.051 52.622,173.019 19.516,156.619C33.503,156.23 53.559,152.566 67.532,136.879C68.587,135.697 68.843,134.004 68.186,132.562C67.538,131.135 66.112,130.218 64.545,130.218L64.505,130.218C64.305,130.346 43.299,130.195 33.684,110.213C37.557,110.432 42.333,110.193 46.135,108.441C47.702,107.718 48.627,106.074 48.434,104.359C48.241,102.646 46.971,101.25 45.284,100.894C44.208,100.668 20.825,95.439 17.553,69.93C21.102,71.48 25.639,72.75 30.131,72.064C31.675,71.832 32.938,70.722 33.374,69.224C33.809,67.726 33.333,66.109 32.155,65.086C31.155,64.215 9.194,44.697 19.606,19.527C30.909,31.386 64.391,62.209 104.954,59.879C106.143,59.81 107.241,59.213 107.948,58.252C108.653,57.291 108.893,56.066 108.602,54.91C107.835,51.851 107.444,48.699 107.444,45.545C107.444,24.842 124.018,8 144.389,8C154.354,8 163.702,11.976 170.706,19.199C171.442,19.959 172.452,20.396 173.509,20.414C177.747,20.472 184.717,19.974 192.589,16.818C190.317,19.644 186.981,23.035 182.073,26.888C180.686,27.978 180.177,29.85 180.819,31.492C181.463,33.138 183.126,34.178 184.864,34.021C185.795,33.947 190.549,33.527 195.921,32.365C192.995,35.521 188.983,39.547 183.495,44.596Z" style="fill-rule:nonzero;stroke:black;stroke-width:3.62px;"/>
    </g>
</svg>
